<svg width="108" height="108" viewBox="0 0 108 108" fill="none" xmlns="http://www.w3.org/2000/svg">
<path d="M70.6353 104.682C48.3461 110.946 29.0723 106.289 14.0213 89.1559C-0.966578 72.0949 -4.13152 52.0647 5.45796 31.4789C15.1789 10.6109 32.6272 -0.0200835 55.7666 2.84827e-05C80.1407 0.0212125 101.677 18.6828 106.395 43.0966C111.209 68.0076 98.1784 92.9931 75.1903 102.913C73.8162 103.505 72.4092 104.022 70.6353 104.682ZM93.3444 28.644C84.3839 14.9924 71.7269 7.62547 55.4343 7.07133C36.2314 6.41821 17.9439 18.4546 10.8052 35.9736C3.24618 54.5239 7.91312 74.4711 23.185 88.8868C27.9052 93.3425 29.3946 93.5 33.3946 94C33.8946 90.5 34.3946 88.8868 37.3946 88.5C39.3946 88 39.2083 86.8578 39.675 86C40.76 84.0058 41.175 78.5 39.675 69C39.675 63.5 39.675 63 44.8946 55C45.7048 53.8927 48.3946 51.5 47.8946 48.8491C45.3946 48.3491 41.6856 48.9397 39.675 48.1888C35.7936 46.7394 33.0799 40.4783 34.3946 37.7045C39.675 35.9736 36.8946 30.3491 40.5678 27.9261C46.5119 25.3491 49.3946 22.8491 45.6642 16.202C46.5915 15.9695 46.9252 15.7748 47.1995 15.8381C48.0056 16.024 48.8192 16.2412 49.575 16.5715C59.0228 20.7006 64.9675 27.6301 67.7874 37.7045C69.2231 42.8337 67.8946 50.6821 76.3946 54.6821C82.8245 57.708 84.6653 65.9943 85.8946 69.6821C86.8946 72.6821 87.3946 79.6821 87.3946 85.6821C87.3946 85.6821 88.8085 85.4026 90.3946 83.1821C97.8946 72.6821 105.895 52.5 97.8946 48C94.66 46.1805 91.8676 45.0659 88.3946 45.5C84.3946 46 84.3946 46 83.8946 45.5C83.2502 44.8556 82.8946 43.6821 85.3946 42.1821C86.3946 41.6821 90.6195 40.8992 93.3444 41.1821C96.8409 41.5452 99.8946 43.0966 99.8946 43.0966C99.3946 39.2787 94.5898 30.8103 93.3444 28.644Z" fill="#0E0F0E"/>
</svg>
